<svg width="1024" height="1024" viewBox="0 0 1024 1024" fill="none" xmlns="http://www.w3.org/2000/svg">
<g clip-path="url(#clip0_1_78)">
<rect width="1024" height="1024" fill="black"/>
<path d="M-58 684L630 519C630 519 739.912 492.182 795 449C830.136 421.457 849.649 403.147 872 364.5C891.478 330.821 901.781 310.143 905 270.5C908.192 231.186 905.641 201.861 888.5 163C871.788 125.11 858.607 100.279 822.5 80C775.682 53.705 732.133 57.2358 679 65C631.839 71.8915 609.245 87.0729 572 114C522.967 149.449 513.914 163 485 217C458.679 266.159 453.198 290.636 442 343.5C384.17 616.5 294.5 1078 294.5 1078" stroke="white" stroke-width="80"/>
</g>
<defs>
<clipPath id="clip0_1_78">
<rect width="1024" height="1024" fill="white"/>
</clipPath>
</defs>
</svg>
