<svg width="4928" height="1024" viewBox="0 0 4928 1024" fill="none" xmlns="http://www.w3.org/2000/svg">
<g clip-path="url(#clip0_42_4)">
<path d="M1024 0H0V1024H1024V0Z" fill="black"/>
<path d="M-60 785.916C180 725.916 420 655.916 600 585.916C740 530.916 840 465.916 880 375.916C920 285.916 890 195.916 810 155.916C730 115.916 630 145.916 560 215.916C490 285.916 460 385.916 440 505.916C420 625.916 380 785.916 330 965.916C300 1065.92 270 1125.92 250 1155.92" stroke="white" stroke-width="80" stroke-linecap="round" stroke-linejoin="round"/>
</g>
<path d="M1494.2 293.636H1547.05V582.557C1547.05 612.386 1540.01 639.02 1525.95 662.457C1512.03 685.753 1492.36 704.148 1466.93 717.642C1441.51 730.994 1411.68 737.67 1377.44 737.67C1343.21 737.67 1313.38 730.994 1287.95 717.642C1262.53 704.148 1242.78 685.753 1228.72 662.457C1214.8 639.02 1207.84 612.386 1207.84 582.557V293.636H1260.68V578.295C1260.68 599.602 1265.37 618.565 1274.74 635.185C1284.12 651.662 1297.47 664.659 1314.8 674.176C1332.27 683.551 1353.15 688.239 1377.44 688.239C1401.73 688.239 1422.61 683.551 1440.09 674.176C1457.56 664.659 1470.91 651.662 1480.14 635.185C1489.52 618.565 1494.2 599.602 1494.2 578.295V293.636ZM1877.57 476.023L1832.4 488.807C1829.56 481.278 1825.37 473.963 1819.83 466.861C1814.43 459.616 1807.04 453.651 1797.67 448.963C1788.29 444.276 1776.29 441.932 1761.66 441.932C1741.63 441.932 1724.94 446.548 1711.59 455.781C1698.38 464.872 1691.77 476.449 1691.77 490.511C1691.77 503.011 1696.32 512.884 1705.41 520.128C1714.5 527.372 1728.7 533.409 1748.02 538.239L1796.6 550.17C1825.86 557.273 1847.67 568.139 1862.01 582.77C1876.36 597.259 1883.53 615.937 1883.53 638.807C1883.53 657.557 1878.14 674.318 1867.34 689.091C1856.69 703.864 1841.77 715.511 1822.6 724.034C1803.42 732.557 1781.12 736.818 1755.69 736.818C1722.31 736.818 1694.68 729.574 1672.81 715.085C1650.93 700.597 1637.08 679.432 1631.26 651.591L1678.99 639.659C1683.53 657.273 1692.13 670.483 1704.77 679.29C1717.55 688.097 1734.24 692.5 1754.84 692.5C1778.28 692.5 1796.89 687.528 1810.66 677.585C1824.58 667.5 1831.54 655.426 1831.54 641.364C1831.54 630 1827.57 620.483 1819.61 612.812C1811.66 605 1799.44 599.176 1782.97 595.341L1728.42 582.557C1698.45 575.455 1676.43 564.446 1662.37 549.531C1648.45 534.474 1641.49 515.653 1641.49 493.068C1641.49 474.602 1646.67 458.267 1657.04 444.062C1667.55 429.858 1681.83 418.707 1699.87 410.611C1718.05 402.514 1738.65 398.466 1761.66 398.466C1794.04 398.466 1819.47 405.568 1837.94 419.773C1856.54 433.977 1869.75 452.727 1877.57 476.023ZM2096.44 736.818C2064.91 736.818 2037.71 729.858 2014.84 715.938C1992.11 701.875 1974.57 682.273 1962.21 657.131C1949.99 631.847 1943.88 602.443 1943.88 568.92C1943.88 535.398 1949.99 505.852 1962.21 480.284C1974.57 454.574 1991.75 434.545 2013.77 420.199C2035.93 405.71 2061.78 398.466 2091.33 398.466C2108.37 398.466 2125.21 401.307 2141.83 406.989C2158.44 412.67 2173.57 421.903 2187.21 434.688C2200.85 447.33 2211.71 464.091 2219.81 484.972C2227.9 505.852 2231.95 531.562 2231.95 562.102V583.409H1979.68V539.943H2180.82C2180.82 521.477 2177.12 505 2169.74 490.511C2162.49 476.023 2152.12 464.588 2138.63 456.207C2125.28 447.827 2109.51 443.636 2091.33 443.636C2071.3 443.636 2053.97 448.608 2039.34 458.551C2024.85 468.352 2013.7 481.136 2005.89 496.903C1998.08 512.67 1994.17 529.574 1994.17 547.614V576.591C1994.17 601.307 1998.43 622.259 2006.95 639.446C2015.62 656.491 2027.62 669.489 2042.96 678.438C2058.3 687.244 2076.13 691.648 2096.44 691.648C2109.65 691.648 2121.58 689.801 2132.24 686.108C2143.03 682.273 2152.34 676.591 2160.15 669.062C2167.96 661.392 2174 651.875 2178.26 640.511L2226.84 654.148C2221.73 670.625 2213.13 685.114 2201.06 697.614C2188.98 709.972 2174.07 719.631 2156.31 726.591C2138.56 733.409 2118.6 736.818 2096.44 736.818ZM2315.26 730V293.636H2576.91V340.511H2368.1V487.955H2557.31V534.83H2368.1V730H2315.26ZM2710.88 293.636V730H2660.59V293.636H2710.88ZM2935.93 736.818C2906.38 736.818 2880.46 729.787 2858.16 715.724C2836 701.662 2818.67 681.989 2806.17 656.705C2793.81 631.42 2787.63 601.875 2787.63 568.068C2787.63 533.977 2793.81 504.219 2806.17 478.793C2818.67 453.366 2836 433.622 2858.16 419.56C2880.46 405.497 2906.38 398.466 2935.93 398.466C2965.48 398.466 2991.33 405.497 3013.49 419.56C3035.79 433.622 3053.12 453.366 3065.48 478.793C3077.98 504.219 3084.23 533.977 3084.23 568.068C3084.23 601.875 3077.98 631.42 3065.48 656.705C3053.12 681.989 3035.79 701.662 3013.49 715.724C2991.33 729.787 2965.48 736.818 2935.93 736.818ZM2935.93 691.648C2958.37 691.648 2976.84 685.895 2991.33 674.389C3005.82 662.884 3016.54 647.756 3023.5 629.006C3030.46 610.256 3033.94 589.943 3033.94 568.068C3033.94 546.193 3030.46 525.81 3023.5 506.918C3016.54 488.026 3005.82 472.756 2991.33 461.108C2976.84 449.46 2958.37 443.636 2935.93 443.636C2913.49 443.636 2895.02 449.46 2880.53 461.108C2866.04 472.756 2855.32 488.026 2848.36 506.918C2841.4 525.81 2837.92 546.193 2837.92 568.068C2837.92 589.943 2841.4 610.256 2848.36 629.006C2855.32 647.756 2866.04 662.884 2880.53 674.389C2895.02 685.895 2913.49 691.648 2935.93 691.648ZM3224 730L3124.28 402.727H3177.12L3247.86 653.295H3251.27L3321.16 402.727H3374.85L3443.88 652.443H3447.29L3518.03 402.727H3570.87L3471.16 730H3421.73L3350.13 478.58H3345.02L3273.43 730H3224ZM3687.63 293.636V730H3637.35V293.636H3687.63ZM3812.12 852.727C3803.6 852.727 3796 852.017 3789.32 850.597C3782.65 849.318 3778.03 848.04 3775.47 846.761L3788.26 802.443C3800.47 805.568 3811.27 806.705 3820.64 805.852C3830.02 805 3838.33 800.81 3845.57 793.281C3852.96 785.895 3859.71 773.892 3865.81 757.273L3875.19 731.705L3754.17 402.727H3808.71L3899.05 663.523H3902.46L3992.8 402.727H4047.35L3908.43 777.727C3902.18 794.631 3894.44 808.622 3885.2 819.702C3875.97 830.923 3865.25 839.233 3853.03 844.631C3840.96 850.028 3827.32 852.727 3812.12 852.727ZM4129.86 733.409C4119.35 733.409 4110.33 729.645 4102.8 722.116C4095.27 714.588 4091.51 705.568 4091.51 695.057C4091.51 684.545 4095.27 675.526 4102.8 667.997C4110.33 660.469 4119.35 656.705 4129.86 656.705C4140.37 656.705 4149.39 660.469 4156.92 667.997C4164.45 675.526 4168.21 684.545 4168.21 695.057C4168.21 702.017 4166.43 708.409 4162.88 714.233C4159.47 720.057 4154.86 724.744 4149.03 728.295C4143.35 731.705 4136.96 733.409 4129.86 733.409ZM4283.16 730H4227.76L4387.99 293.636H4442.54L4602.76 730H4547.37L4416.97 362.67H4413.56L4283.16 730ZM4303.62 559.545H4526.91V606.42H4303.62V559.545ZM4723.57 293.636V730H4670.73V293.636H4723.57Z" fill="black"/>
<defs>
<clipPath id="clip0_42_4">
<rect width="1024" height="1024" fill="white"/>
</clipPath>
</defs>
</svg>
